<?xml version="1.0" encoding="utf-8"?>
<!-- Generator: Adobe Illustrator 16.0.0, SVG Export Plug-In . SVG Version: 6.00 Build 0)  -->
<!DOCTYPE svg PUBLIC "-//W3C//DTD SVG 1.1//EN" "http://www.w3.org/Graphics/SVG/1.1/DTD/svg11.dtd">
<svg version="1.1" id="Logo_-_White_Shadow_1_" xmlns="http://www.w3.org/2000/svg" xmlns:xlink="http://www.w3.org/1999/xlink"
	 x="0px" y="0px" width="141.732px" height="51.969px" viewBox="0 0 141.732 51.969"
	 style="enable-background:new 0 0 141.732 51.969;" xml:space="preserve">
<style type="text/css">
<![CDATA[
	.st0{opacity:0.502;}
	.st1{fill-rule:evenodd;clip-rule:evenodd;}
	.st2{fill:#FFFFFF;}
	.st3{fill-rule:evenodd;clip-rule:evenodd;fill:#FFFFFF;}
]]>
</style>
<g id="Shadow_1_" class="st0">
	<g id="Cloud">
		<g>
			<path class="st1" d="M83.819,39.813c-0.169,0-0.305-0.075-0.409-0.225c-0.104-0.149-0.155-0.348-0.155-0.596
				c0-1.054,0.649-4.133,1.951-9.237c0.325-1.276,0.487-1.95,0.487-2.022c0-0.104-0.065-0.156-0.195-0.156
				c-0.397,0-1.166,0.134-2.307,0.4l-1.396,5.84c-0.229-0.234-0.438-0.4-0.63-0.498c-0.192-0.098-0.458-0.146-0.796-0.146
				c-1.218,0-2.355,0.62-3.413,1.86c-0.843,0.987-1.334,2.044-1.506,3.166l-0.814,0.765c-0.665,0.619-1.166,0.928-1.505,0.928
				c-0.417,0-0.626-0.306-0.626-0.918c0-0.319,0.114-0.876,0.343-1.671c0.229-0.794,0.649-2.171,1.264-4.13l-2.658,0.537l-1.28,4.16
				c-0.124,0.41-0.436,0.891-0.938,1.44c-0.501,0.551-0.921,0.825-1.259,0.825c-0.469,0-0.703-0.313-0.703-0.937
				c0.002-0.885,0.54-2.888,1.612-6.009l-2.608,0.52c-0.667,1.8-1.084,3.298-1.263,4.506c-0.672,0.744-1.226,1.119-1.657,1.119
				c-0.365,0-0.713-0.152-1.045-0.459c0.664-1.771,0.996-3.265,0.996-4.482c0-0.247-0.029-0.452-0.088-0.615
				c-0.059-0.162-0.216-0.304-0.474-0.425c-0.257-0.12-0.663-0.181-1.216-0.181c-1.465,0-2.725,0.532-3.779,1.597
				c-0.972,0.981-1.475,2.149-1.551,3.487c-0.778,0.762-1.364,1.271-1.75,1.518c-0.397,0.254-0.771,0.381-1.123,0.381
				c-0.345,0-0.622-0.166-0.83-0.498s-0.313-0.781-0.313-1.348c0-0.254,0.026-0.719,0.078-1.396
				c1.302-1.413,2.259-2.741,2.871-3.984s0.918-2.529,0.918-3.857c0-0.469-0.06-0.841-0.181-1.118
				c-0.121-0.276-0.275-0.415-0.464-0.415c-0.039,0-0.098,0.013-0.176,0.039l-2.48,0.918c-0.846,1.615-1.566,3.379-2.158,5.293
				c-0.535,1.729-0.815,3.224-0.867,4.507c-0.62,0.695-1.22,1.216-1.799,1.551c-0.605,0.35-1.286,0.524-2.041,0.524
				c-1.191,0-2.173-0.436-2.944-1.309c-0.771-0.872-1.157-1.988-1.157-3.35c0-1.067,0.229-2.194,0.688-3.379s1.032-2.155,1.719-2.91
				c0.687-0.755,1.333-1.133,1.938-1.133c0.417,0,0.75,0.16,1.001,0.479c0.25,0.319,0.376,0.749,0.376,1.289
				c0,0.774-0.223,1.488-0.669,2.139c-0.446,0.651-0.929,0.977-1.45,0.977c-0.365,0-0.651-0.192-0.859-0.576
				c-0.28,0.3-0.42,0.625-0.42,0.977c0,0.41,0.163,0.746,0.488,1.006c0.326,0.261,0.742,0.391,1.25,0.391
				c0.963,0,1.805-0.431,2.524-1.294c0.719-0.862,1.079-1.883,1.079-3.062c0-0.905-0.298-1.641-0.893-2.207
				c-0.596-0.566-1.366-0.85-2.31-0.85c-1.126,0-2.274,0.414-3.442,1.24c-1.168,0.827-2.114,1.931-2.837,3.311
				c-0.723,1.381-1.084,2.836-1.084,4.365c0,1.537,0.5,2.795,1.5,3.774c0.999,0.98,2.28,1.47,3.842,1.47
				c2.153,0,3.993-0.779,5.524-2.334c0.082,0.603,0.279,1.104,0.595,1.504c0.426,0.54,0.987,0.811,1.684,0.811
				c0.605,0,1.242-0.193,1.909-0.581c0.659-0.382,1.424-0.974,2.294-1.771c0.095,0.594,0.305,1.098,0.64,1.502
				c0.469,0.566,1.081,0.85,1.836,0.85c1.211,0,2.285-0.709,3.223-2.129c0.462,0.365,0.928,0.547,1.396,0.547
				c0.183,0,0.43-0.06,0.743-0.181c0.272-0.104,0.554-0.288,0.841-0.524c0,0.007-0.001,0.015-0.001,0.021
				c0,0.703,0.15,1.26,0.45,1.67c0.299,0.41,0.696,0.615,1.191,0.615c0.541,0,1.094-0.188,1.661-0.562
				c0.566-0.374,1.207-0.955,1.923-1.743c0,0.703,0.138,1.26,0.415,1.67s0.672,0.615,1.187,0.615c0.462,0,0.982-0.193,1.563-0.581
				c0.564-0.377,1.264-0.961,2.094-1.742c0.054,0.576,0.251,1.092,0.611,1.537c0.423,0.524,0.911,0.786,1.465,0.786
				c0.508,0,1.075-0.225,1.704-0.674c0.628-0.449,1.209-1.106,1.743-1.973c0.006,0.866,0.145,1.523,0.415,1.973
				c0.27,0.449,0.636,0.674,1.099,0.674c0.377,0,0.812-0.164,1.304-0.493c0.491-0.328,1.206-0.959,2.144-1.89v-1.123
				C84.921,39.273,84.235,39.813,83.819,39.813z M53.879,30.461c0.459-1.2,0.809-1.8,1.05-1.8c0.111,0,0.202,0.073,0.273,0.22
				c0.072,0.147,0.107,0.341,0.107,0.582c0,0.822-0.257,1.803-0.771,2.944c-0.514,1.141-1.185,2.171-2.012,3.09
				C52.97,33.339,53.42,31.66,53.879,30.461z M61.375,39.032c-0.541,0.854-1.042,1.279-1.504,1.279
				c-0.371,0-0.661-0.183-0.869-0.547s-0.313-0.875-0.313-1.533c0-1.185,0.239-2.22,0.718-3.105
				c0.479-0.885,1.141-1.328,1.987-1.328c0.183,0,0.323,0.02,0.42,0.059c-0.905,0.756-1.357,1.653-1.357,2.695
				C60.457,37.438,60.763,38.264,61.375,39.032z M80.604,38.212c-0.554,1.081-1.149,1.621-1.787,1.621
				c-0.287,0-0.513-0.104-0.679-0.313s-0.249-0.491-0.249-0.85c0-0.911,0.283-1.932,0.85-3.062c0.566-1.129,1.152-1.694,1.758-1.694
				c0.279,0,0.506,0.114,0.679,0.342c0.172,0.229,0.259,0.534,0.259,0.918C81.434,36.119,81.156,37.132,80.604,38.212z"/>
		</g>
	</g>
	<g id="School">
		<g>
			<path class="st1" d="M92.496,28.802c0.547,0,1.016,0.213,1.406,0.64s0.621,0.975,0.693,1.646
				c0.032,0.332,0.113,0.524,0.244,0.576h0.176c0.84-0.996,1.26-1.621,1.26-1.875c0-0.293-0.317-0.659-0.952-1.099
				s-1.431-0.659-2.388-0.659c-1.263,0-2.275,0.423-3.037,1.27s-1.143,1.774-1.143,2.783c0,0.579,0.143,1.175,0.43,1.787
				c0.286,0.612,0.893,1.359,1.819,2.243c0.927,0.883,1.49,1.509,1.689,1.876c0.2,0.367,0.3,0.714,0.3,1.039
				c0,0.631-0.257,1.186-0.771,1.663c-0.515,0.479-1.116,0.718-1.807,0.718c-0.632,0-1.145-0.192-1.538-0.576
				c-0.395-0.384-0.64-1.084-0.737-2.1c-0.032-0.325-0.093-0.549-0.181-0.669s-0.236-0.181-0.444-0.181
				c-0.059,0-0.286,0.332-0.684,0.996s-0.596,1.087-0.596,1.27c0,0.325,0.361,0.747,1.084,1.265s1.641,0.776,2.754,0.776
				c1.348,0,2.524-0.441,3.53-1.323s1.509-1.902,1.509-3.062c0-0.501-0.14-1.03-0.42-1.587s-0.913-1.305-1.897-2.243
				c-0.985-0.939-1.596-1.625-1.831-2.058s-0.354-0.837-0.354-1.214c0-0.521,0.186-0.968,0.557-1.342S91.981,28.802,92.496,28.802z
				 M136.383,40.247c-0.397,0.254-0.771,0.381-1.123,0.381c-0.345,0-0.622-0.166-0.83-0.498s-0.313-0.781-0.313-1.348
				c0-0.254,0.025-0.72,0.078-1.396c1.302-1.413,2.259-2.741,2.871-3.984s0.918-2.529,0.918-3.857c0-0.469-0.061-0.842-0.181-1.118
				c-0.121-0.276-0.275-0.415-0.464-0.415c-0.039,0-0.098,0.013-0.176,0.039l-2.48,0.918c-0.847,1.614-1.565,3.379-2.158,5.293
				c-0.533,1.723-0.813,3.212-0.866,4.491c-0.644,0.697-1.178,1.056-1.595,1.056c-0.364,0-0.713-0.153-1.045-0.459
				c0.664-1.771,0.996-3.265,0.996-4.482c0-0.247-0.029-0.452-0.088-0.615s-0.217-0.305-0.474-0.425
				c-0.258-0.12-0.662-0.181-1.216-0.181c-1.465,0-2.725,0.532-3.779,1.597c-0.976,0.985-1.479,2.158-1.553,3.502
				c-0.646,0.703-1.183,1.063-1.602,1.063c-0.364,0-0.713-0.153-1.045-0.459c0.664-1.771,0.996-3.265,0.996-4.482
				c0-0.247-0.029-0.452-0.088-0.615s-0.217-0.305-0.474-0.425c-0.258-0.12-0.662-0.181-1.216-0.181
				c-1.465,0-2.725,0.532-3.779,1.597c-0.978,0.986-1.481,2.161-1.553,3.509c-1.076,1.196-1.819,1.799-2.226,1.799
				c-0.117,0-0.22-0.056-0.308-0.166s-0.132-0.237-0.132-0.381c0-0.313,0.233-1.084,0.7-2.313c0.466-1.229,0.7-2.138,0.7-2.725
				c0-0.391-0.104-0.705-0.309-0.943c-0.205-0.237-0.475-0.356-0.807-0.356c-0.3,0-0.593,0.065-0.88,0.195s-0.863,0.446-1.73,0.947
				c0.904-1.185,1.569-2.195,1.992-3.032s0.635-1.6,0.635-2.29c0-0.41-0.059-0.752-0.176-1.025s-0.261-0.41-0.43-0.41
				c-0.091,0-0.454,0.109-1.089,0.327s-1.379,0.5-2.231,0.845c-1.146,1.875-1.985,3.649-2.52,5.322
				c-0.418,1.31-0.667,2.703-0.757,4.176c-0.57,0.596-1.083,1.044-1.533,1.337c-0.466,0.303-0.962,0.454-1.489,0.454
				c-0.618,0-1.113-0.231-1.484-0.693s-0.557-1.081-0.557-1.855c0-0.898,0.196-1.699,0.591-2.402
				c0.394-0.703,0.828-1.055,1.304-1.055c0.201,0,0.362,0.088,0.483,0.264c0.12,0.176,0.181,0.407,0.181,0.693
				c0,0.065-0.02,0.242-0.059,0.532s-0.059,0.461-0.059,0.513c0,0.13,0.046,0.195,0.137,0.195c0.065,0,0.166-0.032,0.303-0.098
				l1.133-0.537c0.188-0.091,0.317-0.183,0.386-0.273s0.103-0.228,0.103-0.41c0-0.515-0.183-0.933-0.547-1.255
				s-0.837-0.483-1.416-0.483c-1.179,0-2.274,0.588-3.286,1.763c-1.013,1.175-1.519,2.456-1.519,3.843
				c0,0.847,0.274,1.545,0.825,2.095c0.55,0.55,1.248,0.825,2.095,0.825c0.755,0,1.479-0.192,2.173-0.576
				c0.667-0.369,1.399-0.945,2.195-1.718c0,0.029-0.003,0.058-0.003,0.087c0,0.801,0.042,1.543,0.127,2.227l2.178-0.508
				c0-1.68,0.113-3.118,0.342-4.316c0.547-0.612,1.067-1.096,1.563-1.45c0.494-0.354,0.872-0.532,1.133-0.532
				c0.254,0,0.381,0.134,0.381,0.4c0,0.234-0.159,0.735-0.479,1.504c-0.6,1.419-0.898,2.52-0.898,3.301
				c0,0.462,0.145,0.845,0.435,1.147c0.289,0.303,0.656,0.454,1.099,0.454c0.987,0,2.243-0.788,3.767-2.36
				c0.097,0.589,0.305,1.089,0.638,1.491c0.469,0.566,1.081,0.85,1.836,0.85c1.211,0,2.285-0.71,3.223-2.129
				c0.462,0.364,0.928,0.547,1.396,0.547c0.183,0,0.43-0.061,0.742-0.181c0.299-0.115,0.606-0.314,0.923-0.586
				c0.096,0.592,0.306,1.095,0.64,1.499c0.469,0.566,1.081,0.85,1.836,0.85c1.211,0,2.285-0.71,3.223-2.129
				c0.462,0.364,0.928,0.547,1.396,0.547c0.182,0,0.43-0.061,0.742-0.181c0.292-0.112,0.593-0.308,0.9-0.569
				c0.081,0.61,0.28,1.118,0.599,1.521c0.426,0.54,0.987,0.811,1.685,0.811c0.605,0,1.241-0.194,1.909-0.581
				c0.667-0.388,1.443-0.988,2.329-1.802v-1.123C137.386,39.466,136.779,39.993,136.383,40.247z M135.812,30.934
				c0.459-1.2,0.809-1.8,1.05-1.8c0.11,0,0.201,0.073,0.273,0.22c0.071,0.146,0.107,0.341,0.107,0.582
				c0,0.821-0.257,1.803-0.771,2.943c-0.515,1.142-1.185,2.172-2.012,3.091C134.901,33.812,135.353,32.133,135.812,30.934z
				 M107.457,35.784c0.423-1.81,0.967-3.356,1.631-4.639s1.175-1.924,1.533-1.924c0.215,0,0.322,0.195,0.322,0.586
				C110.943,31.09,109.781,33.082,107.457,35.784z M119.322,39.505c-0.541,0.853-1.042,1.279-1.504,1.279
				c-0.371,0-0.661-0.183-0.869-0.547c-0.209-0.364-0.313-0.876-0.313-1.533c0-1.185,0.239-2.22,0.718-3.105
				s1.141-1.328,1.987-1.328c0.183,0,0.322,0.02,0.42,0.059c-0.905,0.755-1.357,1.653-1.357,2.695
				C118.404,37.91,118.71,38.736,119.322,39.505z M128.082,39.505c-0.54,0.853-1.042,1.279-1.504,1.279
				c-0.371,0-0.661-0.183-0.869-0.547s-0.313-0.876-0.313-1.533c0-1.185,0.239-2.22,0.718-3.105s1.141-1.328,1.987-1.328
				c0.182,0,0.322,0.02,0.42,0.059c-0.905,0.755-1.357,1.653-1.357,2.695C127.164,37.91,127.47,38.736,128.082,39.505z"/>
		</g>
	</g>
	<g id="Under_Line">
		<g>
			<path d="M140.504,40.157c-0.821,0.962-3.183,3.159-4.063,3.402c-0.062,0.039-104.431,0.119-109.418,0
				c-4.986-0.12-13.228,6.803-13.228,6.803c5.95-4.389,12-5.386,12-5.386s110.515-0.042,110.551,0
				C137.506,44.669,141.326,39.195,140.504,40.157z"/>
		</g>
	</g>
	<g id="Pen">
		<g>
			<path class="st1" d="M5.176,27.951c0,0,0.15,0.879-0.195,1.815c-0.336,0.911-1.167,1.881-1.167,1.881s8.541,9.862,8.128,18.581
				l6.456-13.877c-0.593-0.316-1.01-0.941-1.027-1.68c-0.024-1.074,0.797-1.964,1.836-1.987c1.039-0.023,1.9,0.829,1.925,1.902
				c0.024,1.074-0.797,1.964-1.836,1.987c-0.158,0.004-0.31-0.02-0.457-0.054L12.563,50.01c2.673-2.598,13.37-12.447,24.268-14.861
				c0,0,0.461-2.177,1.427-3.825c1.129-1.929,2.79-3.372,2.79-3.372H5.176z M11.922,50.646c0,0,0.013-0.013,0.034-0.035L11.925,50.6
				C11.923,50.614,11.924,50.63,11.922,50.646z"/>
		</g>
	</g>
	<g id="Open">
		<g>
			<path class="st1" d="M47.663,24.7h1.097v-3.379h-1.097V24.7z M60.756,19.087H44.599c1.701,5.669-1.229,7.503-1.229,7.503h21.827
				L60.756,19.087z M49.56,24.868c0,0.277-0.162,0.416-0.485,0.416h-1.736c-0.317,0-0.475-0.139-0.475-0.416v-3.713
				c0-0.279,0.158-0.418,0.475-0.418h1.736c0.324,0,0.485,0.14,0.485,0.418V24.868z M53.347,23.212c0,0.283-0.163,0.424-0.489,0.424
				h-1.295v1.647h-0.8v-4.547h2.095c0.326,0,0.489,0.14,0.489,0.418V23.212z M56.692,25.284h-2.218v-4.547h2.198v0.602h-1.398v1.328
				h1.203v0.59h-1.203v1.426h1.418V25.284z M60.51,25.284h-0.701l-1.282-2.862c0.034,0.14,0.051,0.249,0.051,0.329v2.533h-0.779
				v-4.547H58.5l1.282,2.804c-0.034-0.14-0.051-0.249-0.051-0.328v-2.476h0.779V25.284z M51.563,23.052h0.978v-1.731h-0.978V23.052z
				"/>
		</g>
	</g>
	<g id="Cloud_1_">
		<g>
			<path class="st1" d="M39.997,15.947c0,0,1.322-5.026-3.62-7.643c-4.248-2.25-7.018-0.339-7.953,0.511
				c1.161,1.43,1.397,2.905,1.397,2.905s2.506-2.88,6.924-0.681c4.117,2.049,3.016,5.985,3.016,5.985s3.224,0.568,3.358,4.672
				c0.109,3.345-2.552,3.662-2.552,3.662H10.881c0,0-4.235-1.713-2.821-7.071c1.137-4.311,6.448-4.861,6.448-4.861
				s0.196-7.261,7.589-7.261c2.775,0,4.557,0.911,5.709,1.993c-0.639-1.959-2.725-6.078-9.007-6.078
				c-8.872,0-9.108,9.272-9.108,9.272s-6.373,0.704-7.737,6.208c-1.697,6.843,3.385,9.03,3.385,9.03h35.625
				c0,0,3.194-0.404,3.063-4.676C43.865,16.672,39.997,15.947,39.997,15.947z"/>
		</g>
	</g>
</g>
<g id="Logo_1_">
	<g id="Cloud_2_">
		<g>
			<path class="st3" d="M83.536,39.436c-0.169,0-0.306-0.075-0.409-0.225c-0.104-0.149-0.156-0.348-0.156-0.596
				c0-1.054,0.65-4.133,1.951-9.237c0.325-1.276,0.488-1.95,0.488-2.022c0-0.104-0.065-0.156-0.195-0.156
				c-0.397,0-1.167,0.134-2.308,0.4l-1.396,5.84c-0.228-0.234-0.438-0.4-0.63-0.498c-0.191-0.098-0.457-0.146-0.796-0.146
				c-1.217,0-2.354,0.62-3.412,1.86c-0.843,0.987-1.335,2.044-1.507,3.166l-0.813,0.765c-0.665,0.619-1.167,0.928-1.505,0.928
				c-0.417,0-0.626-0.306-0.626-0.918c0-0.319,0.114-0.876,0.343-1.671c0.229-0.794,0.649-2.171,1.263-4.13l-2.658,0.537
				l-1.279,4.16c-0.124,0.41-0.436,0.891-0.938,1.44s-0.921,0.825-1.26,0.825c-0.469,0-0.703-0.313-0.703-0.937
				c0.002-0.885,0.54-2.888,1.612-6.009l-2.608,0.52c-0.667,1.8-1.084,3.298-1.263,4.506c-0.673,0.744-1.226,1.119-1.657,1.119
				c-0.365,0-0.713-0.152-1.045-0.459c0.664-1.771,0.996-3.265,0.996-4.482c0-0.247-0.029-0.452-0.088-0.615
				c-0.059-0.162-0.217-0.305-0.474-0.425c-0.257-0.12-0.663-0.181-1.216-0.181c-1.465,0-2.725,0.532-3.779,1.597
				c-0.972,0.981-1.475,2.149-1.551,3.487c-0.778,0.762-1.364,1.271-1.75,1.518c-0.397,0.254-0.771,0.381-1.123,0.381
				c-0.345,0-0.622-0.166-0.83-0.498c-0.208-0.332-0.313-0.781-0.313-1.348c0-0.254,0.026-0.719,0.078-1.396
				c1.302-1.413,2.259-2.741,2.871-3.984c0.612-1.243,0.918-2.529,0.918-3.857c0-0.469-0.061-0.841-0.181-1.118
				c-0.121-0.276-0.275-0.415-0.464-0.415c-0.039,0-0.098,0.013-0.176,0.039l-2.48,0.918c-0.846,1.615-1.566,3.379-2.158,5.293
				c-0.535,1.729-0.815,3.224-0.867,4.507c-0.62,0.695-1.22,1.216-1.799,1.551c-0.605,0.35-1.286,0.524-2.041,0.524
				c-1.191,0-2.173-0.436-2.944-1.309c-0.771-0.872-1.157-1.988-1.157-3.35c0-1.067,0.229-2.194,0.688-3.379s1.032-2.155,1.719-2.91
				s1.333-1.133,1.938-1.133c0.417,0,0.75,0.16,1.001,0.479c0.25,0.319,0.376,0.749,0.376,1.289c0,0.774-0.223,1.488-0.669,2.139
				c-0.446,0.651-0.93,0.977-1.45,0.977c-0.365,0-0.651-0.192-0.859-0.576c-0.28,0.3-0.42,0.625-0.42,0.977
				c0,0.41,0.163,0.746,0.488,1.006c0.325,0.261,0.742,0.391,1.25,0.391c0.963,0,1.805-0.432,2.524-1.294
				c0.719-0.862,1.079-1.883,1.079-3.062c0-0.905-0.298-1.641-0.894-2.207s-1.366-0.85-2.31-0.85c-1.126,0-2.274,0.414-3.442,1.24
				c-1.169,0.827-2.114,1.931-2.837,3.311c-0.723,1.381-1.084,2.836-1.084,4.365c0,1.537,0.5,2.795,1.499,3.774
				c0.999,0.98,2.28,1.47,3.843,1.47c2.153,0,3.993-0.779,5.524-2.334c0.082,0.603,0.279,1.104,0.594,1.504
				c0.426,0.54,0.988,0.811,1.685,0.811c0.605,0,1.242-0.193,1.909-0.581c0.659-0.383,1.423-0.974,2.294-1.771
				c0.095,0.594,0.305,1.098,0.64,1.502c0.469,0.566,1.081,0.85,1.836,0.85c1.211,0,2.285-0.709,3.223-2.129
				c0.462,0.365,0.928,0.547,1.396,0.547c0.182,0,0.43-0.06,0.742-0.181c0.272-0.104,0.554-0.288,0.841-0.524
				c0,0.007-0.001,0.015-0.001,0.021c0,0.703,0.149,1.26,0.449,1.67c0.299,0.41,0.696,0.615,1.191,0.615
				c0.541,0,1.094-0.188,1.66-0.562s1.208-0.955,1.924-1.743c0,0.703,0.138,1.26,0.415,1.67s0.672,0.615,1.186,0.615
				c0.463,0,0.983-0.193,1.563-0.581c0.565-0.378,1.264-0.961,2.094-1.742c0.054,0.575,0.251,1.091,0.611,1.537
				c0.424,0.524,0.912,0.786,1.465,0.786c0.508,0,1.076-0.225,1.704-0.674c0.629-0.449,1.21-1.106,1.743-1.973
				c0.007,0.866,0.146,1.523,0.415,1.973c0.271,0.449,0.637,0.674,1.099,0.674c0.378,0,0.813-0.164,1.304-0.493
				c0.492-0.328,1.206-0.959,2.144-1.89v-1.123C84.638,38.896,83.952,39.436,83.536,39.436z M53.596,30.083
				c0.459-1.2,0.809-1.8,1.05-1.8c0.111,0,0.202,0.073,0.273,0.22c0.072,0.147,0.107,0.341,0.107,0.582
				c0,0.822-0.257,1.803-0.771,2.944c-0.515,1.141-1.185,2.171-2.012,3.09C52.687,32.961,53.137,31.282,53.596,30.083z
				 M61.091,38.654c-0.541,0.854-1.042,1.279-1.504,1.279c-0.371,0-0.661-0.183-0.869-0.547c-0.208-0.364-0.313-0.875-0.313-1.533
				c0-1.185,0.239-2.22,0.718-3.105c0.479-0.885,1.141-1.328,1.987-1.328c0.182,0,0.322,0.02,0.42,0.059
				c-0.905,0.756-1.357,1.653-1.357,2.695C60.173,37.06,60.479,37.886,61.091,38.654z M80.319,37.834
				c-0.553,1.081-1.148,1.621-1.787,1.621c-0.286,0-0.512-0.104-0.679-0.313c-0.166-0.208-0.249-0.491-0.249-0.85
				c0-0.911,0.283-1.932,0.85-3.062s1.152-1.694,1.758-1.694c0.28,0,0.507,0.114,0.68,0.342c0.172,0.229,0.258,0.534,0.258,0.918
				C81.149,35.741,80.873,36.754,80.319,37.834z"/>
		</g>
	</g>
	<g id="School_1_">
		<g>
			<path class="st3" d="M92.213,28.424c0.547,0,1.016,0.213,1.406,0.64s0.621,0.975,0.693,1.646
				c0.032,0.332,0.113,0.524,0.244,0.576h0.176c0.84-0.996,1.26-1.621,1.26-1.875c0-0.293-0.317-0.659-0.952-1.099
				s-1.431-0.659-2.388-0.659c-1.264,0-2.275,0.423-3.037,1.27s-1.143,1.774-1.143,2.783c0,0.579,0.143,1.175,0.43,1.787
				c0.286,0.612,0.893,1.359,1.819,2.243c0.927,0.883,1.489,1.509,1.689,1.876c0.199,0.367,0.3,0.714,0.3,1.039
				c0,0.631-0.258,1.186-0.771,1.663c-0.515,0.479-1.117,0.718-1.807,0.718c-0.632,0-1.145-0.192-1.538-0.576
				c-0.395-0.384-0.64-1.084-0.737-2.1c-0.033-0.325-0.093-0.549-0.181-0.669s-0.236-0.181-0.444-0.181
				c-0.059,0-0.287,0.332-0.684,0.996c-0.397,0.664-0.596,1.087-0.596,1.27c0,0.325,0.361,0.747,1.084,1.265
				s1.641,0.776,2.754,0.776c1.348,0,2.524-0.441,3.53-1.323s1.509-1.902,1.509-3.062c0-0.501-0.141-1.03-0.42-1.587
				c-0.28-0.557-0.913-1.305-1.897-2.243c-0.985-0.939-1.596-1.625-1.831-2.058c-0.236-0.433-0.354-0.837-0.354-1.214
				c0-0.521,0.186-0.968,0.557-1.342S91.698,28.424,92.213,28.424z M136.1,39.869c-0.397,0.254-0.771,0.381-1.123,0.381
				c-0.346,0-0.622-0.166-0.83-0.498c-0.209-0.332-0.313-0.781-0.313-1.348c0-0.254,0.025-0.72,0.078-1.396
				c1.302-1.413,2.259-2.741,2.871-3.984c0.611-1.243,0.918-2.529,0.918-3.857c0-0.469-0.061-0.842-0.181-1.118
				c-0.121-0.276-0.275-0.415-0.464-0.415c-0.039,0-0.098,0.013-0.176,0.039l-2.48,0.918c-0.847,1.614-1.566,3.379-2.158,5.293
				c-0.533,1.723-0.813,3.212-0.866,4.491c-0.644,0.697-1.178,1.056-1.595,1.056c-0.365,0-0.713-0.153-1.045-0.459
				c0.664-1.771,0.996-3.265,0.996-4.482c0-0.247-0.029-0.452-0.088-0.615s-0.217-0.305-0.474-0.425
				c-0.258-0.12-0.663-0.181-1.216-0.181c-1.465,0-2.725,0.532-3.779,1.597c-0.976,0.985-1.479,2.158-1.553,3.502
				c-0.646,0.703-1.184,1.063-1.602,1.063c-0.365,0-0.713-0.153-1.045-0.459c0.664-1.771,0.996-3.265,0.996-4.482
				c0-0.247-0.029-0.452-0.088-0.615s-0.217-0.305-0.474-0.425c-0.258-0.12-0.663-0.181-1.216-0.181
				c-1.465,0-2.725,0.532-3.779,1.597c-0.978,0.986-1.481,2.161-1.553,3.509c-1.076,1.196-1.819,1.799-2.227,1.799
				c-0.117,0-0.22-0.056-0.308-0.166s-0.132-0.237-0.132-0.381c0-0.313,0.233-1.084,0.7-2.313s0.7-2.138,0.7-2.725
				c0-0.391-0.103-0.705-0.308-0.943c-0.206-0.237-0.475-0.356-0.807-0.356c-0.3,0-0.594,0.065-0.88,0.195
				c-0.287,0.13-0.864,0.446-1.73,0.947c0.904-1.185,1.568-2.195,1.992-3.032c0.423-0.837,0.635-1.6,0.635-2.29
				c0-0.41-0.059-0.752-0.176-1.025s-0.261-0.41-0.43-0.41c-0.092,0-0.454,0.109-1.089,0.327s-1.379,0.5-2.231,0.845
				c-1.146,1.875-1.986,3.649-2.52,5.322c-0.418,1.31-0.667,2.703-0.757,4.176c-0.57,0.596-1.083,1.044-1.533,1.337
				c-0.466,0.303-0.962,0.454-1.489,0.454c-0.619,0-1.113-0.231-1.484-0.693s-0.557-1.081-0.557-1.855
				c0-0.898,0.196-1.699,0.591-2.402c0.394-0.703,0.828-1.055,1.304-1.055c0.201,0,0.362,0.088,0.483,0.264
				c0.12,0.176,0.181,0.407,0.181,0.693c0,0.065-0.02,0.242-0.059,0.532s-0.059,0.461-0.059,0.513c0,0.13,0.045,0.195,0.137,0.195
				c0.064,0,0.166-0.032,0.303-0.098l1.133-0.537c0.188-0.091,0.317-0.183,0.386-0.273s0.103-0.228,0.103-0.41
				c0-0.515-0.183-0.933-0.547-1.255c-0.365-0.322-0.837-0.483-1.416-0.483c-1.179,0-2.274,0.588-3.286,1.763
				c-1.013,1.175-1.519,2.456-1.519,3.843c0,0.847,0.274,1.545,0.825,2.095c0.55,0.55,1.248,0.825,2.095,0.825
				c0.755,0,1.479-0.192,2.173-0.576c0.667-0.369,1.399-0.945,2.195-1.718c0,0.029-0.003,0.058-0.003,0.087
				c0,0.801,0.042,1.543,0.127,2.227l2.178-0.508c0-1.68,0.113-3.118,0.342-4.316c0.547-0.612,1.067-1.096,1.563-1.45
				c0.494-0.354,0.872-0.532,1.133-0.532c0.254,0,0.381,0.134,0.381,0.4c0,0.234-0.16,0.735-0.479,1.504
				c-0.6,1.419-0.898,2.52-0.898,3.301c0,0.462,0.145,0.845,0.435,1.147c0.289,0.303,0.655,0.454,1.099,0.454
				c0.987,0,2.243-0.789,3.767-2.36c0.097,0.589,0.305,1.089,0.638,1.491c0.469,0.566,1.08,0.85,1.836,0.85
				c1.211,0,2.285-0.71,3.223-2.129c0.462,0.364,0.928,0.547,1.396,0.547c0.182,0,0.43-0.061,0.742-0.181
				c0.299-0.114,0.606-0.314,0.923-0.587c0.096,0.594,0.306,1.096,0.64,1.5c0.469,0.566,1.08,0.85,1.836,0.85
				c1.211,0,2.285-0.71,3.223-2.129c0.462,0.364,0.928,0.547,1.396,0.547c0.182,0,0.43-0.061,0.742-0.181
				c0.292-0.112,0.593-0.308,0.9-0.569c0.081,0.61,0.28,1.118,0.599,1.521c0.426,0.54,0.987,0.811,1.685,0.811
				c0.605,0,1.241-0.194,1.909-0.581c0.667-0.388,1.443-0.988,2.329-1.802v-1.123C137.102,39.088,136.496,39.615,136.1,39.869z
				 M135.528,30.555c0.459-1.199,0.809-1.799,1.05-1.799c0.11,0,0.201,0.073,0.273,0.22c0.071,0.146,0.107,0.341,0.107,0.582
				c0,0.821-0.258,1.803-0.771,2.943c-0.515,1.142-1.186,2.172-2.012,3.091C134.618,33.434,135.069,31.755,135.528,30.555z
				 M107.174,35.406c0.423-1.81,0.967-3.356,1.631-4.639s1.175-1.924,1.533-1.924c0.215,0,0.322,0.195,0.322,0.586
				C110.66,30.712,109.498,32.704,107.174,35.406z M119.039,39.127c-0.541,0.853-1.042,1.279-1.504,1.279
				c-0.371,0-0.661-0.183-0.869-0.547c-0.209-0.364-0.313-0.876-0.313-1.533c0-1.185,0.239-2.22,0.718-3.105
				s1.141-1.328,1.987-1.328c0.182,0,0.322,0.02,0.42,0.059c-0.905,0.755-1.357,1.653-1.357,2.695
				C118.121,37.532,118.427,38.358,119.039,39.127z M127.799,39.127c-0.541,0.853-1.042,1.279-1.504,1.279
				c-0.371,0-0.661-0.183-0.869-0.547c-0.209-0.364-0.313-0.876-0.313-1.533c0-1.185,0.239-2.22,0.718-3.105
				s1.141-1.328,1.987-1.328c0.182,0,0.322,0.02,0.42,0.059c-0.905,0.755-1.357,1.653-1.357,2.695
				C126.881,37.532,127.187,38.358,127.799,39.127z"/>
		</g>
	</g>
	<g id="Under_Line_1_">
		<g>
			<path class="st2" d="M140.221,39.779c-0.822,0.962-3.183,3.159-4.063,3.402c-0.061,0.039-104.431,0.119-109.417,0
				c-4.987-0.12-13.229,6.803-13.229,6.803c5.95-4.389,12-5.386,12-5.386s110.515-0.042,110.552,0
				C137.223,44.291,141.042,38.817,140.221,39.779z"/>
		</g>
	</g>
	<g id="Pen_1_">
		<g>
			<path class="st3" d="M11.639,50.268c0,0,0.013-0.013,0.034-0.035l-0.032-0.012C11.64,50.236,11.64,50.252,11.639,50.268z
				 M4.893,27.573c0,0,0.151,0.879-0.194,1.815C4.362,30.3,3.53,31.27,3.53,31.27s8.541,9.862,8.128,18.581l6.457-13.877
				c-0.593-0.316-1.01-0.941-1.027-1.68c-0.024-1.074,0.798-1.964,1.836-1.987s1.901,0.829,1.925,1.902
				c0.024,1.074-0.798,1.964-1.836,1.987c-0.158,0.004-0.31-0.02-0.457-0.054L12.28,49.632c2.673-2.598,13.37-12.447,24.268-14.861
				c0,0,0.461-2.177,1.427-3.825c1.129-1.929,2.789-3.372,2.789-3.372H4.893z"/>
		</g>
	</g>
	<g id="Open_1_">
		<g>
			<path class="st3" d="M47.38,24.322h1.097v-3.379H47.38V24.322z M60.473,18.709H44.315c1.701,5.669-1.228,7.503-1.228,7.503
				h21.827L60.473,18.709z M49.277,24.49c0,0.277-0.162,0.416-0.485,0.416h-1.736c-0.317,0-0.475-0.139-0.475-0.416v-3.713
				c0-0.279,0.158-0.418,0.475-0.418h1.736c0.323,0,0.485,0.14,0.485,0.418V24.49z M53.063,22.834c0,0.283-0.163,0.424-0.489,0.424
				h-1.295v1.647h-0.8v-4.547h2.095c0.326,0,0.489,0.14,0.489,0.418V22.834z M56.409,24.906H54.19v-4.547h2.198v0.602H54.99v1.328
				h1.203v0.59H54.99v1.426h1.418V24.906z M60.226,24.906h-0.701l-1.282-2.862c0.034,0.14,0.051,0.249,0.051,0.328v2.534h-0.779
				v-4.547h0.701l1.282,2.804c-0.034-0.14-0.051-0.249-0.051-0.328v-2.476h0.779V24.906z M51.279,22.674h0.978v-1.731h-0.978V22.674
				z"/>
		</g>
	</g>
	<g id="Cloud_3_">
		<g>
			<path class="st3" d="M39.713,15.569c0,0,1.322-5.026-3.619-7.643c-4.247-2.25-7.018-0.339-7.953,0.511
				c1.161,1.43,1.397,2.905,1.397,2.905s2.506-2.88,6.924-0.681c4.117,2.049,3.016,5.985,3.016,5.985s3.224,0.568,3.358,4.672
				c0.109,3.345-2.552,3.662-2.552,3.662H10.598c0,0-4.235-1.713-2.821-7.071c1.138-4.311,6.448-4.862,6.448-4.862
				s0.197-7.26,7.589-7.26c2.774,0,4.557,0.911,5.709,1.992c-0.639-1.959-2.726-6.078-9.007-6.078c-8.872,0-9.107,9.272-9.107,9.272
				s-6.373,0.704-7.738,6.208c-1.697,6.843,3.385,9.03,3.385,9.03H40.68c0,0,3.194-0.405,3.063-4.676
				C43.582,16.294,39.713,15.569,39.713,15.569z"/>
		</g>
	</g>
</g>
</svg>
